# Blender v2.78 (sub 0) OBJ File: 'junkyardGrinder.blend'
# www.blender.org
o Box_Cylinder
v 0.990000 -0.700000 0.000000
v 0.990000 0.700000 0.000000
v 0.990000 -0.700000 -1.000000
v 0.990000 0.700000 -1.000000
v 1.010000 -0.700000 0.000000
v 1.010000 0.700000 0.000000
v 1.010000 -0.700000 -1.000000
v 1.010000 0.700000 -1.000000
v -1.010000 -0.700000 0.000000
v -1.010000 0.700000 0.000000
v -1.010000 -0.700000 -1.000000
v -1.010000 0.700000 -1.000000
v -0.990000 -0.700000 0.000000
v -0.990000 0.700000 0.000000
v -0.990000 -0.700000 -1.000000
v -0.990000 0.700000 -1.000000
v -1.000000 0.690000 0.000000
v -1.000000 0.710000 0.000000
v -1.000000 0.690000 -1.000000
v -1.000000 0.710000 -1.000000
v 1.000000 0.690000 0.000000
v 1.000000 0.710000 0.000000
v 1.000000 0.690000 -1.000000
v 1.000000 0.710000 -1.000000
v -1.000000 -0.710000 -0.010000
v -1.000000 -0.690000 -0.010000
v -1.000000 -0.710000 -1.010000
v -1.000000 -0.690000 -1.010000
v 1.000000 -0.710000 -0.010000
v 1.000000 -0.690000 -0.010000
v 1.000000 -0.710000 -1.010000
v 1.000000 -0.690000 -1.010000
v 1.000000 -0.700000 -0.020000
v 1.000000 -0.700000 0.020000
v -1.000000 -0.700000 0.020000
v -1.000000 -0.700000 -0.020000
v 1.000000 0.700000 -0.020000
v 0.999999 0.700000 0.020000
v -1.000000 0.700000 0.020000
v -1.000000 0.700000 -0.020000
vn -1.0000 -0.0000 0.0000
vn 0.0000 0.0000 -1.0000
vn 1.0000 -0.0000 0.0000
vn 0.0000 -0.0000 1.0000
vn 0.0000 -1.0000 0.0000
vn 0.0000 1.0000 0.0000
s off
f 1//1 4//1 3//1
f 4//2 7//2 3//2
f 7//3 6//3 5//3
f 6//4 1//4 5//4
f 7//5 1//5 3//5
f 4//6 6//6 8//6
f 9//1 12//1 11//1
f 12//2 15//2 11//2
f 15//3 14//3 13//3
f 14//4 9//4 13//4
f 15//5 9//5 11//5
f 12//6 14//6 16//6
f 18//1 19//1 17//1
f 20//2 23//2 19//2
f 24//3 21//3 23//3
f 22//4 17//4 21//4
f 23//5 17//5 19//5
f 20//6 22//6 24//6
f 26//1 27//1 25//1
f 28//2 31//2 27//2
f 32//3 29//3 31//3
f 30//4 25//4 29//4
f 31//5 25//5 27//5
f 28//6 30//6 32//6
f 34//5 36//5 33//5
f 40//6 38//6 37//6
f 37//3 34//3 33//3
f 38//4 35//4 34//4
f 39//1 36//1 35//1
f 33//2 40//2 37//2
f 1//1 2//1 4//1
f 4//2 8//2 7//2
f 7//3 8//3 6//3
f 6//4 2//4 1//4
f 7//5 5//5 1//5
f 4//6 2//6 6//6
f 9//1 10//1 12//1
f 12//2 16//2 15//2
f 15//3 16//3 14//3
f 14//4 10//4 9//4
f 15//5 13//5 9//5
f 12//6 10//6 14//6
f 18//1 20//1 19//1
f 20//2 24//2 23//2
f 24//3 22//3 21//3
f 22//4 18//4 17//4
f 23//5 21//5 17//5
f 20//6 18//6 22//6
f 26//1 28//1 27//1
f 28//2 32//2 31//2
f 32//3 30//3 29//3
f 30//4 26//4 25//4
f 31//5 29//5 25//5
f 28//6 26//6 30//6
f 34//5 35//5 36//5
f 40//6 39//6 38//6
f 37//3 38//3 34//3
f 38//4 39//4 35//4
f 39//1 40//1 36//1
f 33//2 36//2 40//2
