# Blender v2.78 (sub 0) OBJ File: 'junkyardGrinder.blend'
# www.blender.org
o Box_Cylinder
v 0.990000 -0.700000 0.000000
v 0.990000 0.700000 0.000000
v 0.990000 -0.700000 -1.000000
v 0.990000 0.700000 -1.000000
v 1.010000 -0.700000 0.000000
v 1.010000 0.700000 0.000000
v 1.010000 -0.700000 -1.000000
v 1.010000 0.700000 -1.000000
v -1.010000 -0.700000 0.000000
v -1.010000 0.700000 0.000000
v -1.010000 -0.700000 -1.000000
v -1.010000 0.700000 -1.000000
v -0.990000 -0.700000 0.000000
v -0.990000 0.700000 0.000000
v -0.990000 -0.700000 -1.000000
v -0.990000 0.700000 -1.000000
v -1.000000 0.690000 0.000000
v -1.000000 0.710000 0.000000
v -1.000000 0.690000 -1.000000
v -1.000000 0.710000 -1.000000
v 1.000000 0.690000 0.000000
v 1.000000 0.710000 0.000000
v 1.000000 0.690000 -1.000000
v 1.000000 0.710000 -1.000000
v -1.000000 -0.710000 -0.010000
v -1.000000 -0.690000 -0.010000
v -1.000000 -0.710000 -1.010000
v -1.000000 -0.690000 -1.010000
v 1.000000 -0.710000 -0.010000
v 1.000000 -0.690000 -0.010000
v 1.000000 -0.710000 -1.010000
v 1.000000 -0.690000 -1.010000
v 1.000000 -0.700000 -0.020000
v 1.000000 -0.700000 0.020000
v -1.000000 -0.700000 0.020000
v -1.000000 -0.700000 -0.020000
v 1.000000 0.700000 -0.020000
v 0.999999 0.700000 0.020000
v -1.000000 0.700000 0.020000
v -1.000000 0.700000 -0.020000
vt 0.0000 0.0000
vt 1.0000 1.0000
vt 0.0000 1.0000
vt 1.0000 0.0000
vt 0.0000 1.0000
vt 0.0000 0.0000
vt 0.0000 0.0000
vt 1.0000 1.0000
vt 0.0000 1.0000
vt 1.0000 0.0000
vt 0.0000 1.0000
vt 0.0000 0.0000
vt 1.0000 0.0000
vt 0.0000 1.0000
vt 0.0000 0.0000
vt 0.0000 0.0000
vt 1.0000 1.0000
vt 0.0000 1.0000
vt 1.0000 0.0000
vt 0.0000 1.0000
vt 0.0000 0.0000
vt 0.0000 0.0000
vt 1.0000 1.0000
vt 0.0000 1.0000
vt 1.0000 0.0000
vt 0.0000 1.0000
vt 0.0000 0.0000
vt 1.0000 0.0000
vt 0.0000 1.0000
vt 0.0000 0.0000
vt 1.0000 0.0000
vt 0.0000 1.0000
vt 0.0000 0.0000
vt 1.0000 0.0000
vt 0.0000 1.0000
vt 0.0000 0.0000
vt 1.0000 0.0000
vt 0.0000 1.0000
vt 0.0000 0.0000
vt 1.0000 0.0000
vt 0.0000 1.0000
vt 0.0000 0.0000
vt 1.0000 0.0000
vt 0.0000 1.0000
vt 0.0000 0.0000
vt 1.0000 0.0000
vt 0.0000 1.0000
vt 0.0000 0.0000
vt 1.0000 0.0000
vt 0.0000 1.0000
vt 0.0000 0.0000
vt 1.0000 0.0000
vt 0.0000 1.0000
vt 0.0000 0.0000
vt 1.0000 0.0000
vt 0.0000 1.0000
vt 0.0000 0.0000
vt 1.0000 0.0000
vt 0.0000 1.0000
vt 0.0000 0.0000
vt 1.0000 0.0000
vt 0.0000 1.0000
vt 0.0000 0.0000
vt 1.0000 0.0000
vt 0.0000 1.0000
vt 0.0000 0.0000
vt 1.0000 0.0000
vt 0.0000 1.0000
vt 1.0000 0.0000
vt 0.0000 1.0000
vt 0.0000 0.0000
vt 1.0000 0.0000
vt 0.0000 0.0000
vt 1.0000 0.0000
vt 0.0000 1.0000
vt 1.0000 0.0000
vt 1.0000 1.0000
vt 1.0000 0.0000
vt 1.0000 1.0000
vt 1.0000 1.0000
vt 1.0000 0.0000
vt 1.0000 1.0000
vt 1.0000 0.0000
vt 1.0000 1.0000
vt 1.0000 1.0000
vt 1.0000 1.0000
vt 1.0000 1.0000
vt 1.0000 1.0000
vt 1.0000 1.0000
vt 1.0000 1.0000
vt 1.0000 1.0000
vt 1.0000 1.0000
vt 1.0000 1.0000
vt 1.0000 1.0000
vt 1.0000 1.0000
vt 1.0000 1.0000
vt 1.0000 1.0000
vt 1.0000 1.0000
vt 1.0000 1.0000
vt 1.0000 1.0000
vn -1.0000 -0.0000 0.0000
vn 0.0000 0.0000 -1.0000
vn 1.0000 -0.0000 0.0000
vn 0.0000 -0.0000 1.0000
vn 0.0000 -1.0000 0.0000
vn 0.0000 1.0000 0.0000
s off
f 1/1/1 4/2/1 3/3/1
f 4/4/2 7/5/2 3/6/2
f 7/7/3 6/8/3 5/9/3
f 6/10/4 1/11/4 5/12/4
f 7/13/5 1/11/5 3/6/5
f 4/4/6 6/14/6 8/15/6
f 9/16/1 12/17/1 11/18/1
f 12/19/2 15/20/2 11/21/2
f 15/22/3 14/23/3 13/24/3
f 14/25/4 9/26/4 13/27/4
f 15/28/5 9/26/5 11/21/5
f 12/19/6 14/29/6 16/30/6
f 18/31/1 19/32/1 17/33/1
f 20/34/2 23/35/2 19/36/2
f 24/37/3 21/38/3 23/39/3
f 22/40/4 17/41/4 21/42/4
f 23/43/5 17/41/5 19/36/5
f 20/34/6 22/44/6 24/45/6
f 26/46/1 27/47/1 25/48/1
f 28/49/2 31/50/2 27/51/2
f 32/52/3 29/53/3 31/54/3
f 30/55/4 25/56/4 29/57/4
f 31/58/5 25/56/5 27/51/5
f 28/49/6 30/59/6 32/60/6
f 34/61/5 36/62/5 33/63/5
f 40/64/6 38/65/6 37/66/6
f 37/67/3 34/68/3 33/63/3
f 38/69/4 35/70/4 34/71/4
f 39/72/1 36/62/1 35/73/1
f 33/74/2 40/75/2 37/66/2
f 1/1/1 2/76/1 4/2/1
f 4/4/2 8/77/2 7/5/2
f 7/7/3 8/78/3 6/8/3
f 6/10/4 2/79/4 1/11/4
f 7/13/5 5/80/5 1/11/5
f 4/4/6 2/79/6 6/14/6
f 9/16/1 10/81/1 12/17/1
f 12/19/2 16/82/2 15/20/2
f 15/22/3 16/83/3 14/23/3
f 14/25/4 10/84/4 9/26/4
f 15/28/5 13/85/5 9/26/5
f 12/19/6 10/84/6 14/29/6
f 18/31/1 20/86/1 19/32/1
f 20/34/2 24/87/2 23/35/2
f 24/37/3 22/88/3 21/38/3
f 22/40/4 18/89/4 17/41/4
f 23/43/5 21/90/5 17/41/5
f 20/34/6 18/89/6 22/44/6
f 26/46/1 28/91/1 27/47/1
f 28/49/2 32/92/2 31/50/2
f 32/52/3 30/93/3 29/53/3
f 30/55/4 26/94/4 25/56/4
f 31/58/5 29/95/5 25/56/5
f 28/49/6 26/94/6 30/59/6
f 34/61/5 35/96/5 36/62/5
f 40/64/6 39/97/6 38/65/6
f 37/67/3 38/98/3 34/68/3
f 38/69/4 39/97/4 35/70/4
f 39/72/1 40/99/1 36/62/1
f 33/74/2 36/100/2 40/75/2
