# Blender v2.78 (sub 0) OBJ File: ''
# www.blender.org
mtllib ScrapFrameFixed.mtl
o SketchUp.001_ID11
v 1.412876 0.137970 -0.137970
v 1.550846 0.137970 -0.137970
l 2 1
o SketchUp_ID3.001
v 1.550846 0.000000 0.000000
v 1.412876 0.137970 0.000000
v 0.000000 0.000000 0.000000
v 1.550846 1.587500 0.000000
v 1.412876 1.449530 0.000000
v 0.137970 1.449530 0.000000
v 0.137970 0.137970 0.000000
v 0.000000 1.587500 0.000000
v 0.000000 0.000000 -1.897125
v 0.137970 0.000000 -1.759154
v 0.000000 0.000000 0.000000
v 1.550846 0.000000 -1.897125
v 1.412876 0.000000 -1.759154
v 1.412876 0.000000 -0.137970
v 0.137970 0.000000 -0.137970
v 1.550846 0.000000 0.000000
v 1.550846 0.000000 0.000000
v 1.550846 0.265742 -0.137970
v 1.550846 1.587500 0.000000
v 1.550846 0.137970 -0.280872
v 1.550846 0.000000 -1.897125
v 1.550846 1.587500 -0.137970
v 1.550846 0.137970 -1.759154
v 1.550846 1.459728 -1.759154
v 1.550846 1.587500 -1.616252
v 1.550846 1.587500 -1.897125
v 0.000000 1.587500 0.000000
v 0.137970 1.587500 -0.137970
v 0.000000 1.587500 -0.741567
v 1.550846 1.587500 0.000000
v 1.550846 1.587500 -0.137970
v 0.137970 1.587500 -0.741567
v 0.000000 1.587500 0.000000
v 0.000000 1.449530 -0.137970
v 0.000000 0.000000 0.000000
v 0.000000 1.587500 -0.741567
v 0.000000 1.449530 -0.741567
v 0.000000 1.024080 -1.897125
v 0.000000 0.137970 -1.759154
v 0.000000 1.024080 -1.759154
v 0.000000 0.137970 -0.137970
v 0.000000 0.000000 -1.897125
v 0.000000 0.000000 -1.897125
v 0.137970 0.137970 -1.897125
v 1.550846 0.000000 -1.897125
v 0.000000 1.024080 -1.897125
v 0.137970 1.024080 -1.897125
v 0.649145 1.587500 -1.897125
v 1.412876 1.449530 -1.897125
v 0.649145 1.449530 -1.897125
v 1.412876 0.137970 -1.897125
v 1.550846 1.587500 -1.897125
v 1.550846 0.265742 -0.137970
v 1.412876 1.587500 -1.616252
v 1.412876 0.265742 -0.137970
v 1.550846 1.587500 -1.616252
v 0.137970 1.587500 -0.137970
v 1.412876 1.449530 -0.137970
v 0.137970 1.449530 -0.137970
v 1.550846 0.265742 -0.137970
v 1.412876 0.265742 -0.137970
v 1.550846 1.587500 -0.137970
v 1.550846 1.587500 -1.616252
v 1.412876 1.587500 -1.759154
v 1.412876 1.587500 -1.616252
v 0.649145 1.587500 -1.897125
v 0.649145 1.587500 -1.759154
v 1.550846 1.587500 -1.897125
v 0.137970 1.449530 -0.741567
v 0.137970 1.587500 -0.137970
v 0.137970 1.449530 -0.137970
v 0.137970 1.587500 -0.741567
v 0.000000 1.587500 -0.741567
v 0.137970 1.449530 -0.741567
v 0.000000 1.449530 -0.741567
v 0.137970 1.587500 -0.741567
v 0.137970 1.449530 -0.741567
v 0.000000 1.449530 -0.137970
v 0.000000 1.449530 -0.741567
v 0.137970 1.449530 -0.137970
v 0.000000 1.449530 -0.137970
v 0.137970 0.137970 -0.137970
v 0.000000 0.137970 -0.137970
v 0.137970 1.449530 -0.137970
v 0.137970 0.137970 -0.137970
v 0.000000 0.137970 -1.759154
v 0.000000 0.137970 -0.137970
v 0.137970 0.137970 -1.759154
v 0.137970 1.024080 -1.759154
v 0.000000 0.137970 -1.759154
v 0.137970 0.137970 -1.759154
v 0.000000 1.024080 -1.759154
v 0.137970 1.024080 -1.759154
v 0.000000 1.024080 -1.897125
v 0.000000 1.024080 -1.759154
v 0.137970 1.024080 -1.897125
v 0.137970 0.137970 -1.897125
v 0.137970 1.024080 -1.759154
v 0.137970 0.137970 -1.759154
v 0.137970 1.024080 -1.897125
v 1.412876 0.137970 -1.759154
v 0.137970 0.137970 -1.897125
v 1.412876 0.137970 -1.897125
v 1.412876 1.449530 -1.897125
v 1.412876 0.137970 -1.759154
v 1.412876 1.449530 -1.759154
v 1.412876 0.137970 -1.897125
v 1.412876 1.449530 -1.897125
v 0.649145 1.449530 -1.759154
v 0.649145 1.449530 -1.897125
v 1.412876 1.449530 -1.759154
v 0.649145 1.587500 -1.897125
v 0.649145 1.449530 -1.759154
v 0.649145 1.587500 -1.759154
v 0.649145 1.449530 -1.897125
v 1.412876 0.265742 -0.137970
v 1.412876 0.137970 -0.280872
v 1.412876 0.137970 -0.137970
v 1.412876 1.587500 -1.616252
v 1.412876 1.459728 -1.759154
v 1.412876 1.587500 -1.759154
v 1.412876 1.449530 -0.137970
v 1.412876 0.137970 0.000000
v 1.412876 1.449530 0.000000
v 1.412876 1.449530 -0.137970
v 0.137970 1.449530 0.000000
v 1.412876 1.449530 0.000000
v 1.412876 1.459728 -1.759154
v 0.649145 1.449530 -1.759154
v 1.412876 1.449530 -1.759154
v 0.649145 1.587500 -1.759154
v 1.412876 1.587500 -1.759154
v 0.137970 0.137970 -0.137970
v 0.137970 1.449530 0.000000
v 0.137970 0.137970 0.000000
v 0.137970 1.449530 -0.137970
v 0.137970 0.000000 -1.759154
v 0.137970 0.137970 -0.137970
v 0.137970 0.000000 -0.137970
v 0.137970 0.137970 -1.759154
v 1.412876 0.137970 -1.759154
v 0.137970 0.000000 -1.759154
v 1.412876 0.000000 -1.759154
v 1.550846 1.459728 -1.759154
v 1.550846 0.137970 -1.759154
v 1.550846 1.459728 -1.759154
v 1.412876 0.137970 -0.280872
v 1.412876 1.459728 -1.759154
v 1.550846 0.137970 -0.280872
v 1.412876 0.000000 -0.137970
v 1.412876 0.000000 -1.759154
v 1.412876 0.137970 0.000000
v 0.137970 0.137970 0.000000
v 1.412876 0.137970 -0.137970
v 1.412876 0.000000 -0.137970
v 0.137970 0.000000 -0.137970
v 1.412876 0.137970 -0.137970
v 1.550846 0.137970 -0.280872
v 1.412876 0.137970 -1.759154
v 1.412876 0.137970 -0.280872
v 1.550846 0.137970 -1.759154
vn 0.0000 0.0000 1.0000
vn 0.0000 -1.0000 0.0000
vn 1.0000 0.0000 0.0000
vn 0.0000 1.0000 0.0000
vn -1.0000 0.0000 0.0000
vn 0.0000 0.0000 -1.0000
vn 0.0000 0.7455 0.6665
vn 0.0000 -0.7455 -0.6665
usemtl material.001
s off
f 3//1 4//1 5//1
f 4//1 3//1 6//1
f 4//1 6//1 7//1
f 7//1 6//1 8//1
f 5//1 9//1 10//1
f 9//1 5//1 4//1
f 10//1 9//1 8//1
f 10//1 8//1 6//1
f 11//2 12//2 13//2
f 12//2 11//2 14//2
f 12//2 14//2 15//2
f 15//2 14//2 16//2
f 13//2 17//2 18//2
f 17//2 13//2 12//2
f 18//2 17//2 16//2
f 18//2 16//2 14//2
f 19//3 20//3 21//3
f 20//3 19//3 22//3
f 22//3 19//3 23//3
f 21//3 20//3 24//3
f 22//3 23//3 25//3
f 25//3 23//3 26//3
f 22//3 27//3 20//3
f 27//3 22//3 26//3
f 27//3 26//3 28//3
f 28//3 26//3 23//3
f 29//4 30//4 31//4
f 30//4 29//4 32//4
f 30//4 32//4 33//4
f 34//4 31//4 30//4
f 35//5 36//5 37//5
f 36//5 35//5 38//5
f 36//5 38//5 39//5
f 40//5 41//5 42//5
f 37//5 43//5 44//5
f 43//5 37//5 36//5
f 44//5 43//5 41//5
f 44//5 41//5 40//5
f 45//6 46//6 47//6
f 46//6 45//6 48//6
f 46//6 48//6 49//6
f 50//6 51//6 52//6
f 47//6 53//6 54//6
f 53//6 47//6 46//6
f 54//6 53//6 51//6
f 54//6 51//6 50//6
f 55//7 56//7 57//7
f 56//7 55//7 58//7
f 59//6 60//6 61//6
f 60//6 62//6 63//6
f 62//6 60//6 64//6
f 64//6 60//6 59//6
f 65//4 66//4 67//4
f 66//4 68//4 69//4
f 68//4 66//4 70//4
f 70//4 66//4 65//4
f 71//3 72//3 73//3
f 72//3 71//3 74//3
f 75//6 76//6 77//6
f 76//6 75//6 78//6
f 79//2 80//2 81//2
f 80//2 79//2 82//2
f 83//6 84//6 85//6
f 84//6 83//6 86//6
f 87//4 88//4 89//4
f 88//4 87//4 90//4
f 91//1 92//1 93//1
f 92//1 91//1 94//1
f 95//4 96//4 97//4
f 96//4 95//4 98//4
f 99//3 100//3 101//3
f 100//3 99//3 102//3
f 103//4 104//4 90//4
f 104//4 103//4 105//4
f 106//5 107//5 108//5
f 107//5 106//5 109//5
f 110//2 111//2 112//2
f 111//2 110//2 113//2
f 114//5 115//5 116//5
f 115//5 114//5 117//5
f 118//5 119//5 120//5
f 119//5 118//5 121//5
f 119//5 121//5 122//5
f 122//5 121//5 123//5
f 124//5 125//5 126//5
f 125//5 124//5 120//5
f 120//5 124//5 118//5
f 127//2 128//2 82//2
f 128//2 127//2 129//2
f 130//1 131//1 132//1
f 131//1 130//1 133//1
f 133//1 130//1 134//1
f 135//3 136//3 137//3
f 136//3 135//3 138//3
f 139//3 140//3 141//3
f 140//3 139//3 142//3
f 143//1 144//1 145//1
f 144//1 143//1 93//1
f 146//1 143//1 147//1
f 143//1 146//1 132//1
f 132//1 146//1 130//1
f 148//8 149//8 150//8
f 149//8 148//8 151//8
f 119//5 152//5 120//5
f 152//5 119//5 153//5
f 153//5 119//5 107//5
f 154//4 87//4 155//4
f 87//4 154//4 156//4
f 84//6 157//6 158//6
f 157//6 84//6 159//6
f 160//4 161//4 162//4
f 161//4 160//4 163//4
