# Blender v2.78 (sub 0) OBJ File: ''
# www.blender.org
mtllib ScrapCarFixed.mtl
o SketchUp.001
v 3.933910 1.268410 -2.266320
v 5.185730 0.708025 -2.571120
v 3.933910 0.708025 -2.571120
v 1.430260 1.268410 -2.266320
v 1.430260 0.708025 -2.571120
v 0.178431 0.708025 -2.571120
v 5.185730 0.708025 -0.178431
v 3.933910 1.268410 -0.483231
v 1.430260 1.268410 -0.483231
v 3.933910 0.708025 -0.178431
v 1.430260 0.708025 -0.178431
v 0.178431 0.708025 -0.178431
v 1.125460 0.000000 -2.749550
v 0.000000 0.000000 0.000000
v 0.000000 0.000000 -2.749550
v 1.125460 -0.000000 -0.000000
v 1.135840 0.078889 -2.749550
v 0.000000 0.708025 -2.749550
v 1.166290 0.152400 -2.749550
v 1.214730 0.215526 -2.749550
v 1.277860 0.263964 -2.749550
v 1.351370 0.294414 -2.749550
v 1.430260 0.304800 -2.749550
v 3.933910 0.304800 -2.749550
v 5.364160 0.708025 -2.749550
v 1.509140 0.294414 -2.749550
v 4.012790 0.294414 -2.749550
v 3.855020 0.294414 -2.749550
v 1.582660 0.263964 -2.749550
v 3.781510 0.263964 -2.749550
v 1.645780 0.215526 -2.749550
v 3.718380 0.215526 -2.749550
v 1.694220 0.152400 -2.749550
v 3.669940 0.152400 -2.749550
v 1.724670 0.078889 -2.749550
v 3.639490 0.078889 -2.749550
v 1.735060 0.000000 -2.749550
v 3.629110 0.000000 -2.749550
v 4.086310 0.263964 -2.749550
v 4.149430 0.215526 -2.749550
v 4.238710 0.000000 -2.749550
v 5.364160 0.000000 -2.749550
v 4.228320 0.078889 -2.749550
v 4.197870 0.152400 -2.749550
v 1.135840 0.078888 0.000000
v 1.166290 0.152400 0.000000
v 1.214730 0.215526 0.000000
v 1.277860 0.263964 0.000000
v 1.351370 0.294414 0.000000
v 1.430260 0.304800 0.000000
v 1.509140 0.294414 0.000000
v 1.582660 0.263964 0.000000
v 1.645780 0.215526 0.000000
v 1.694220 0.152400 0.000000
v 1.724670 0.078888 0.000000
v 1.735060 0.000000 0.000000
v 5.364160 0.708025 0.000000
v 4.238710 0.000000 0.000000
v 5.364160 0.000000 0.000000
v 4.228320 0.078888 0.000000
v 4.197870 0.152400 0.000000
v 4.149430 0.215526 0.000000
v 4.086310 0.263964 0.000000
v 4.012790 0.294414 0.000000
v 3.933910 0.304800 0.000000
v 0.000000 0.708025 0.000000
v 3.855020 0.294414 0.000000
v 3.781510 0.263964 0.000000
v 3.718380 0.215526 0.000000
v 3.669940 0.152400 0.000000
v 3.639490 0.078888 0.000000
v 3.629110 -0.000000 -0.000000
vn 0.0000 0.4778 -0.8785
vn 0.4086 0.9127 0.0000
vn 0.0000 1.0000 0.0000
vn 0.0000 0.4778 0.8785
vn -0.4086 0.9127 0.0000
vn 0.0000 -1.0000 -0.0000
vn -0.0000 0.0000 -1.0000
vn 0.9915 -0.1305 -0.0000
vn 0.9659 -0.2588 -0.0000
vn 0.8660 -0.5000 -0.0000
vn 0.7071 -0.7071 -0.0000
vn 0.5000 -0.8660 -0.0000
vn 0.2588 -0.9659 -0.0000
vn -0.2588 -0.9659 -0.0000
vn -0.5000 -0.8660 -0.0000
vn -0.7071 -0.7071 -0.0000
vn -0.8660 -0.5000 -0.0000
vn -0.9659 -0.2588 -0.0000
vn -0.9914 -0.1306 -0.0000
vn -0.0000 -0.0000 1.0000
vn -1.0000 0.0000 0.0000
vn -0.9659 -0.2589 -0.0000
vn 1.0000 0.0000 0.0000
usemtl None
s 1
f 1//1 2//1 3//1
f 3//1 4//1 1//1
f 4//1 3//1 5//1
f 4//1 5//1 6//1
f 7//2 1//2 8//2
f 1//2 7//2 2//2
f 8//3 4//3 9//3
f 4//3 8//3 1//3
f 8//4 10//4 7//4
f 8//4 11//4 10//4
f 11//4 8//4 9//4
f 9//4 12//4 11//4
f 9//5 6//5 12//5
f 6//5 9//5 4//5
f 13//6 14//6 15//6
f 14//6 13//6 16//6
f 15//7 17//7 13//7
f 17//7 15//7 18//7
f 17//7 18//7 19//7
f 19//7 18//7 20//7
f 20//7 18//7 21//7
f 21//7 18//7 22//7
f 22//7 18//7 23//7
f 23//7 18//7 24//7
f 25//7 24//7 18//7
f 24//7 26//7 23//7
f 25//7 27//7 24//7
f 28//7 26//7 24//7
f 28//7 29//7 26//7
f 30//7 29//7 28//7
f 30//7 31//7 29//7
f 32//7 31//7 30//7
f 32//7 33//7 31//7
f 34//7 33//7 32//7
f 34//7 35//7 33//7
f 36//7 35//7 34//7
f 36//7 37//7 35//7
f 37//7 36//7 38//7
f 25//7 39//7 27//7
f 25//7 40//7 39//7
f 41//7 25//7 42//7
f 25//7 41//7 43//7
f 25//7 43//7 44//7
f 25//7 44//7 40//7
f 13//8 45//9 16//8
f 45//9 13//8 17//9
f 17//9 46//10 45//9
f 46//10 17//9 19//10
f 19//10 47//11 46//10
f 47//11 19//10 20//11
f 21//12 47//11 20//11
f 47//11 21//12 48//12
f 22//13 48//12 21//12
f 48//12 22//13 49//13
f 23//6 49//13 22//13
f 49//13 23//6 50//6
f 26//14 50//6 23//6
f 50//6 26//14 51//14
f 29//15 51//14 26//14
f 51//14 29//15 52//15
f 31//16 52//15 29//15
f 52//15 31//16 53//16
f 31//16 54//17 53//16
f 54//17 31//16 33//17
f 33//17 55//18 54//17
f 55//18 33//17 35//18
f 35//18 56//19 55//18
f 56//19 35//18 37//19
f 57//20 58//20 59//20
f 58//20 57//20 60//20
f 60//20 57//20 61//20
f 61//20 57//20 62//20
f 62//20 57//20 63//20
f 63//20 57//20 64//20
f 64//20 57//20 65//20
f 65//20 57//20 50//20
f 66//20 50//20 57//20
f 51//20 67//20 65//20
f 51//20 65//20 50//20
f 66//20 49//20 50//20
f 66//20 48//20 49//20
f 66//20 47//20 48//20
f 14//20 45//20 66//20
f 66//20 45//20 46//20
f 66//20 46//20 47//20
f 45//20 14//20 16//20
f 52//20 67//20 51//20
f 52//20 68//20 67//20
f 53//20 68//20 52//20
f 53//20 69//20 68//20
f 54//20 69//20 53//20
f 54//20 70//20 69//20
f 55//20 70//20 54//20
f 55//20 71//20 70//20
f 56//20 71//20 55//20
f 71//20 56//20 72//20
f 18//21 14//21 66//21
f 14//21 18//21 15//21
f 42//6 58//6 41//6
f 58//6 42//6 59//6
f 43//22 58//19 60//18
f 58//19 43//22 41//19
f 60//18 44//17 43//22
f 44//17 60//18 61//17
f 61//17 40//16 44//17
f 40//16 61//17 62//16
f 40//16 63//15 39//15
f 63//15 40//16 62//16
f 64//14 39//15 63//15
f 39//15 64//14 27//14
f 65//6 27//14 64//14
f 27//14 65//6 24//6
f 67//13 24//6 65//6
f 24//6 67//13 28//13
f 68//12 28//13 67//13
f 28//13 68//12 30//12
f 69//11 30//12 68//12
f 30//12 69//11 32//11
f 34//10 69//11 70//10
f 69//11 34//10 32//11
f 70//10 36//9 34//10
f 36//9 70//10 71//9
f 71//9 38//8 36//9
f 38//8 71//9 72//8
f 38//6 56//6 37//6
f 56//6 38//6 72//6
f 66//3 12//3 18//3
f 12//3 66//3 57//3
f 12//3 57//3 11//3
f 6//3 18//3 12//3
f 18//3 6//3 25//3
f 25//3 6//3 5//3
f 25//3 5//3 3//3
f 25//3 3//3 2//3
f 25//3 2//3 57//3
f 7//3 57//3 2//3
f 11//3 57//3 10//3
f 10//3 57//3 7//3
f 42//23 57//23 59//23
f 57//23 42//23 25//23
